<?xml version="1.0" encoding="utf-8"?>
<!-- Generator: Adobe Illustrator 15.1.0, SVG Export Plug-In . SVG Version: 6.00 Build 0)  -->
<!DOCTYPE svg PUBLIC "-//W3C//DTD SVG 1.1//EN" "http://www.w3.org/Graphics/SVG/1.1/DTD/svg11.dtd">
<svg version="1.1" id="Layer_1" xmlns="http://www.w3.org/2000/svg" xmlns:xlink="http://www.w3.org/1999/xlink" x="0px" y="0px"
	 width="612px" height="792px" viewBox="0 0 612 792" enable-background="new 0 0 612 792" xml:space="preserve">
<path fill="#42B5E8" d="M94.047,214.313l38.58,432.67l173.11,48.052L479.33,646.92l38.623-432.607H94.047L94.047,214.313z
	 M424.957,455.708l-11.235,104.671l0.043,8.965L306,599.442v0.005l-0.086,0.071l-108.625-29.763l-7.349-82.912h53.268l3.777,41.912
	l59.035,15.755l-0.02,0.071v-0.153l59.259-16.71l6.254-69.563H247.645l-1.062-11.26l-2.419-27l-1.267-14.334h133.33l4.849-52.594
	H178.001l-1.066-12.379l-2.419-28.831l-1.267-16.166h265.823l-1.276,15.94L424.957,455.708"/>
<path fill="#42B5E8" d="M425.531,158.726l-34.182-40.038h34.182V94.781h-76.5v20.86l40.114,36.515h-40.114v23.906h76.5V158.726z
	 M334.688,158.726l-32.546-40.038h32.546V94.781h-71.719v20.86l36.974,36.515h-36.974v23.906h71.719V158.726z M248.625,152.156
	h-38.25v-33.469h38.25V94.781h-66.938v81.281h66.938V152.156z"/>
</svg>
