<?xml version="1.0" encoding="utf-8"?>
<!-- Generator: Adobe Illustrator 15.1.0, SVG Export Plug-In . SVG Version: 6.00 Build 0)  -->
<!DOCTYPE svg PUBLIC "-//W3C//DTD SVG 1.1//EN" "http://www.w3.org/Graphics/SVG/1.1/DTD/svg11.dtd">
<svg version="1.1" id="Layer_1" xmlns="http://www.w3.org/2000/svg" xmlns:xlink="http://www.w3.org/1999/xlink" x="0px" y="0px"
	 width="612px" height="792px" viewBox="0 0 612 792" enable-background="new 0 0 612 792" xml:space="preserve">
<path fill="#F57F20" d="M93.564,219.094l38.666,429.925l173.506,46.292l173.99-45.417l38.709-430.8H93.564z M438.011,316.971
	l-2.425,27.894l-1.066,12.885H230.987l4.863,57.375h193.832l-1.296,10.667l-12.503,138.221l-0.918,8.081L306,601.422v-0.024
	l-0.129,0.058l-108.903-28.286l-7.392-81.544h53.397l3.782,40.449l59.216,15.009l0.029-1.119v0.058l59.345-12.666l6.196-65.637
	H187.2l-13.072-147.435l-1.277-15.128h266.431L438.011,316.971L438.011,316.971z M133.665,97.779h26.88v26.564h24.595V97.779h26.885
	v80.43H185.14v-26.933h-24.59v26.933h-26.885V97.779L133.665,97.779z M247.372,124.454h-23.667V97.779h74.229v26.674h-23.677v53.756
	h-26.885V124.454L247.372,124.454z M309.715,97.779h28.028l17.245,28.262l17.228-28.262h28.042v80.43h-26.78v-39.866l-18.489,28.597
	h-0.468l-18.504-28.597v39.866H309.71v-80.43H309.715z M413.641,97.779h26.89v53.846h37.805v26.588h-64.694V97.779z"/>
</svg>
