<?xml version="1.0" encoding="utf-8"?>
<!-- Generator: Adobe Illustrator 15.1.0, SVG Export Plug-In . SVG Version: 6.00 Build 0)  -->
<!DOCTYPE svg PUBLIC "-//W3C//DTD SVG 1.1//EN" "http://www.w3.org/Graphics/SVG/1.1/DTD/svg11.dtd">
<svg version="1.1" id="Layer_1" xmlns="http://www.w3.org/2000/svg" xmlns:xlink="http://www.w3.org/1999/xlink" x="0px" y="0px"
	 width="612px" height="792px" viewBox="0 0 612 792" enable-background="new 0 0 612 792" xml:space="preserve">
<path fill="#4DA3DA" d="M229.313,467.814l0.923,0.449l1.645,0.794c2.099,0.999,4.217,1.989,6.354,2.94l1.344,0.598
	c2.453,1.076,4.919,2.099,7.416,3.084l1.807,0.707c2.305,0.899,4.647,1.77,6.995,2.597l0.88,0.301
	c2.577,0.899,5.178,1.736,7.803,2.554l1.889,0.56c2.668,0.808,5.302,1.769,8.057,2.28c174.773,31.867,225.536-105.03,225.536-105.03
	c-42.639,55.548-118.321,70.204-190.03,53.889c-2.716-0.611-5.355-1.463-8.004-2.247l-1.994-0.603
	c-2.586-0.793-5.159-1.63-7.708-2.505l-1.057-0.383c-2.285-0.803-4.547-1.654-6.794-2.52l-1.903-0.746
	c-2.467-0.971-4.916-1.988-7.334-3.05l-1.468-0.65c-2.08-0.942-4.141-1.894-6.187-2.879l-1.793-0.86
	c-1.606-0.784-3.199-1.621-4.786-2.438l-3.194-1.673c-1.937-1.038-3.839-2.114-5.733-3.218l-1.936-1.081
	c-2.52-1.487-5.011-3.021-7.473-4.58l-2.013-1.339c-1.788-1.152-3.567-2.324-5.317-3.533l-1.711-1.205
	c-1.692-1.195-3.366-2.405-5.025-3.634l-2.229-1.688c-1.52-1.162-3.036-2.333-4.532-3.538l-2.022-1.625
	c-1.903-1.568-3.787-3.141-5.651-4.757l-0.617-0.521c-2.022-1.76-3.997-3.572-5.948-5.389l-1.673-1.611
	c-1.449-1.372-2.869-2.759-4.27-4.179l-1.674-1.673c-1.778-1.822-3.523-3.667-5.235-5.537l-0.258-0.277
	c-1.812-1.979-3.581-4.002-5.312-6.044l-1.391-1.654c-1.291-1.554-2.572-3.131-3.82-4.724l-1.401-1.74
	c-1.506-1.951-2.974-3.897-4.413-5.876c-39.809-54.305-54.114-129.204-22.295-190.714l-28.205,35.773
	c-36.142,51.938-31.638,119.517-4.035,174.711l2.022,3.925l1.295,2.486l0.803,1.43l1.439,2.577c0.855,1.511,1.73,3.012,2.629,4.514
	l1.506,2.481c0.994,1.606,2.013,3.194,3.06,4.781l1.3,2.018c1.439,2.142,2.912,4.284,4.427,6.388l0.129,0.167l0.746,1.009
	c1.315,1.812,2.668,3.6,4.036,5.37l1.521,1.932c1.219,1.534,2.467,3.064,3.729,4.585l1.425,1.697
	c1.698,2.003,3.428,3.992,5.197,5.938l0.105,0.109l0.201,0.221c1.721,1.884,3.49,3.72,5.278,5.565l1.693,1.706
	c1.387,1.396,2.792,2.769,4.217,4.136l1.726,1.641c1.898,1.788,3.815,3.543,5.776,5.264l0.096,0.072l1.004,0.86
	c1.726,1.492,3.486,2.979,5.255,4.438l2.175,1.73c1.444,1.157,2.907,2.3,4.379,3.423l2.338,1.779
	c1.625,1.195,3.261,2.371,4.91,3.523l1.793,1.271l0.493,0.35c1.568,1.08,3.17,2.113,4.771,3.15l2.065,1.377
	c2.453,1.555,4.949,3.089,7.468,4.571l2.065,1.167c1.855,1.065,3.715,2.113,5.604,3.136l3.098,1.606L229.313,467.814
	L229.313,467.814z M246.971,291.888c3.916,5.613,8.252,12.288,13.45,16.801c1.884,2.075,3.854,4.093,5.862,6.087l1.549,1.52
	c1.956,1.894,3.94,3.753,5.986,5.565l0.249,0.21l0.058,0.062c2.271,1.989,4.614,3.902,6.995,5.786l1.592,1.243
	c2.391,1.831,4.824,3.629,7.32,5.345l0.215,0.158l3.337,2.199l1.587,1.052c1.784,1.138,3.586,2.257,5.427,3.318l0.765,0.445
	c1.583,0.913,3.189,1.812,4.796,2.682l1.702,0.895l3.356,1.735l0.507,0.229c2.304,1.133,4.628,2.223,6.999,3.261l1.545,0.636
	c1.893,0.804,3.811,1.592,5.732,2.329l2.457,0.899c1.75,0.65,3.5,1.243,5.27,1.831l2.386,0.765c2.515,0.779,4.996,1.764,7.616,2.199
	c134.937,22.362,166.092-81.539,166.092-81.539c-28.086,40.444-82.468,59.737-140.502,44.676c-2.577-0.679-5.121-1.411-7.641-2.209
	l-2.3-0.741c-1.793-0.578-3.576-1.195-5.346-1.84l-2.409-0.899c-1.937-0.746-3.858-1.516-5.757-2.319l-1.55-0.66
	c-2.381-1.038-4.729-2.127-7.037-3.275l-3.534-1.798l-2.036-1.047c-1.502-0.813-2.993-1.664-4.466-2.52l-1.066-0.607
	c-1.831-1.066-3.629-2.166-5.412-3.294l-1.631-1.095l-3.5-2.314c-2.49-1.716-4.91-3.509-7.291-5.331l-1.64-1.296
	c-25.403-20.048-45.537-47.463-55.114-78.546c-10.031-32.226-7.87-68.41,9.51-97.771l-21.353,30.15
	c-26.134,37.604-24.714,87.956-4.327,127.731C238.833,279.256,242.672,285.73,246.971,291.888L246.971,291.888z M389.198,245.362
	l3.352,1.162l1.478,0.468c1.593,0.498,3.165,1.081,4.806,1.387c74.506,14.396,94.721-38.236,100.1-45.981
	c-17.705,25.489-47.453,31.604-83.958,22.745c-2.884-0.698-6.054-1.736-8.836-2.726c-3.563-1.271-7.071-2.715-10.485-4.351
	c-6.483-3.118-12.661-6.89-18.389-11.222c-32.666-24.791-52.957-72.063-31.643-110.571l-11.532,15.893
	c-15.405,22.677-16.921,50.839-6.23,75.874C339.134,214.623,362.237,235.47,389.198,245.362L389.198,245.362z M317.279,550.41
	h-20.206c-1.119,0-2.232,0.899-2.472,1.994l-7.172,33.182l-7.172,33.182c-0.234,1.096-1.348,1.994-2.467,1.994H263.49
	c-14.147,0-12.512-9.787-9.615-23.193l0.086-0.407l0.315-1.692l0.058-0.315l0.646-3.442l0.693-3.687l0.736-3.753l3.261-15.932
	l3.266-15.931c0.225-1.1-0.512-2.004-1.631-2.004h-20.736c-1.119,0-2.228,0.899-2.458,1.999l-4.46,21.152l-4.457,21.157
	l-0.009,0.028l-0.411,1.97c-5.135,23.442-3.777,45.805,24.136,46.508l0.813,0.014h43.811c1.119,0,2.233-0.898,2.467-1.993
	l9.448-44.413l9.447-44.418C319.129,551.31,318.402,550.415,317.279,550.41z M100.899,550.176H78.714
	c-1.124,0-2.243,0.899-2.491,1.989l-2.104,9.285l-2.104,9.285c-0.244,1.095,0.469,1.989,1.592,1.989h22.357
	c1.124,0,2.238-0.898,2.477-1.994l2.032-9.28l2.032-9.28C102.739,551.075,102.022,550.176,100.899,550.176z M94.463,579.074H72.101
	c-1.119,0-2.242,0.898-2.491,1.989l-3.142,13.913l-3.136,13.908l-0.875,3.988l-3.017,14.2l-3.012,14.205
	c-0.234,1.095-0.717,2.864-1.076,3.925c0,0-4.179,12.432-11.203,12.288l-0.879-0.019l-6.077-0.11h-0.005
	c-1.119-0.015-2.242,0.86-2.505,1.946l-2.319,9.749l-2.314,9.744c-0.263,1.09,0.444,1.988,1.559,2.008
	c3.983,0.048,12.905,0.148,18.303,0.148c17.542,0,26.794-9.721,32.718-37.69l6.938-32.102l6.507-30.107
	C96.309,579.973,95.582,579.074,94.463,579.074z M506.21,571.549l-0.928-3.83l-0.913-3.921l-0.464-1.979
	c-1.816-7.062-7.147-11.131-18.728-11.131l-18.025-0.019l-16.601-0.024h-18.681c-1.119,0-2.228,0.899-2.462,1.994l-0.827,3.901
	l-0.976,4.609l-0.272,1.296l-8.41,39.397l-7.985,37.398c-0.238,1.1-0.315,2.448-0.182,2.993c0.134,0.55,2.291,0.999,3.409,0.999
	h16.85c1.123,0,2.543-0.2,3.155-0.449s1.516-2.453,1.74-3.548l2.993-14.816l2.998-14.822l0.005-0.024l0.401-1.975l3.634-17.021
	l3.208-15.032c0.239-1.096,1.344-1.989,2.463-1.994l53.019-0.023C505.756,573.537,506.464,572.644,506.21,571.549L506.21,571.549z
	 M574.463,536.932l-4.084,0.015H553.41c-1.123,0-2.563,0.761-3.188,1.688l-37.528,54.976c-0.631,0.927-1.353,0.793-1.602-0.297
	l-2.764-12.11c-0.249-1.096-1.372-1.989-2.496-1.989h-24.121c-1.124,0-1.788,0.88-1.482,1.955l10.811,37.872
	c0.306,1.081,0.33,2.851,0.053,3.94l-4.71,18.326c-0.281,1.09,0.407,1.975,1.53,1.975h23.844c1.119,0,2.267-0.889,2.544-1.975
	l4.715-18.326c0.277-1.095,1.057-2.711,1.735-3.61l60.923-80.855c0.679-0.898,0.311-1.631-0.809-1.621L574.463,536.932z
	 M382.801,584.357v-0.02c-0.139,1.215-1.262,2.108-2.386,2.108H349.83c-1.062,0-1.598-0.717-1.439-1.606l0.028-0.071l-0.019,0.01
	l0.014-0.101l0.139-0.521c2.922-7.765,8.869-12.861,20.053-12.861C381.199,571.29,383.657,577.438,382.801,584.357L382.801,584.357z
	 M373.827,549.053c-39.259,0-48.563,23.83-53.784,47.884c-5.217,24.519-4.772,47.435,35.859,47.435h4.924l1.225-0.004h0.287
	l4.876-0.015h0.087c10.729-0.043,21.491-0.124,25.847-0.158c1.114-0.019,2.204-0.913,2.434-2.008l1.646-8.037l0.32-1.563l1.96-9.592
	c0.225-1.095-0.507-1.998-1.63-1.998h-36.524c-14.53,0-18.843-3.858-17.251-15.209h58.384l-0.005,0.005l0.039-0.005
	c0.927-0.015,1.788-0.655,2.127-1.506l0.139-0.507l-0.005,0.004C413.449,571.08,410.963,549.058,373.827,549.053L373.827,549.053z
	 M188.267,584.233l-0.555,1.955v0.005l-4.408,15.625l-4.409,15.62c-0.301,1.086-1.472,1.966-2.596,1.966h-23.333
	c-17.7,0-22.013-13.847-17.7-34.263c4.308-20.885,12.756-33.866,30.18-35.181C189.256,548.163,194.019,564.907,188.267,584.233
	L188.267,584.233z M204.274,618.204c0,0,11.002-26.718,13.498-42.143c3.409-20.649-6.933-50.609-46.875-50.609
	c-39.713,0-56.963,28.597-63.542,59.689c-6.579,31.317,2.042,58.775,41.53,58.551l31.155-0.114l29.113-0.105
	c1.119-0.01,2.267-0.898,2.553-1.979l5.073-19.345c0.282-1.09-0.401-1.979-1.525-1.989l-4.863-0.028l-4.862-0.029
	c-0.952-0.004-1.497-0.626-1.382-1.443L204.274,618.204z M400.879,600.317c0,0.741-0.598,1.344-1.339,1.344
	c-0.736,0-1.339-0.603-1.339-1.344c0-0.736,0.598-1.334,1.339-1.334S400.879,599.581,400.879,600.317z"/>
</svg>
