<?xml version="1.0" encoding="utf-8"?>
<!-- Generator: Adobe Illustrator 15.1.0, SVG Export Plug-In . SVG Version: 6.00 Build 0)  -->
<!DOCTYPE svg PUBLIC "-//W3C//DTD SVG 1.1//EN" "http://www.w3.org/Graphics/SVG/1.1/DTD/svg11.dtd">
<svg version="1.1" id="Layer_1" xmlns="http://www.w3.org/2000/svg" xmlns:xlink="http://www.w3.org/1999/xlink" x="0px" y="0px"
	 width="612px" height="792px" viewBox="0 0 612 792" enable-background="new 0 0 612 792" xml:space="preserve">
<path fill="#FAEE49" d="M9.563,94.781v597.656h597.656V94.781H9.563z M325.694,604.047c-8.821,17.925-25.661,29.701-45.174,35.386
	c-29.983,6.885-58.661,2.96-79.995-9.845c-14.276-8.759-25.426-22.242-32.995-37.776l45.518-27.875
	c0.396,0.167,1.592,2.328,3.189,5.121c5.804,9.725,10.811,16.609,20.65,21.443c9.667,3.3,30.892,5.408,39.086-11.604
	c5.006-8.654,3.414-36.472,3.414-67.249c-0.005-48.362,0.22-96.523,0.22-144.336h55.983c0,52.594,0.287,102.405,0,153.727
	C335.711,552.5,338.44,580.547,325.694,604.047L325.694,604.047z M557.938,588.23c-19.46,66.564-127.956,68.726-171.313,24.747
	c-9.16-10.351-14.903-15.759-20.368-27.707c23.041-13.254,23.041-13.254,45.461-26.225c12.178,18.718,23.438,29.012,43.695,33.225
	c27.482,3.356,55.133-6.087,48.932-35.276c-6.374-23.839-56.275-29.639-90.236-55.133c-34.479-23.155-42.559-79.421-14.225-111.57
	c9.443-11.891,25.546-20.765,42.443-25.03l17.633-2.281c33.856-0.684,55.018,8.257,70.553,25.604
	c4.322,4.379,7.851,9.103,14.448,19.34c-18.034,11.494-17.978,11.384-43.811,28.108c-5.518-11.886-14.674-19.345-24.351-22.586
	c-15.022-4.553-33.966,0.396-37.896,16.271c-1.362,4.891-1.08,9.442,1.086,17.522c6.086,13.881,26.512,19.914,44.833,28.334
	c52.742,21.392,70.553,44.327,74.932,71.628C563.973,570.707,558.737,585.954,557.938,588.23L557.938,588.23z"/>
</svg>
