<?xml version="1.0" encoding="utf-8"?>
<!-- Generator: Adobe Illustrator 15.1.0, SVG Export Plug-In . SVG Version: 6.00 Build 0)  -->
<!DOCTYPE svg PUBLIC "-//W3C//DTD SVG 1.1//EN" "http://www.w3.org/Graphics/SVG/1.1/DTD/svg11.dtd">
<svg version="1.1" id="Layer_1" xmlns="http://www.w3.org/2000/svg" xmlns:xlink="http://www.w3.org/1999/xlink" x="0px" y="0px"
	 width="612px" height="792px" viewBox="0 0 612 792" enable-background="new 0 0 612 792" xml:space="preserve">
<path fill="#6181B6" d="M306,247.968c-161.319,0-292.105,66.278-292.105,148.032c0,81.755,130.786,148.032,292.105,148.032
	S598.105,477.755,598.105,396C598.105,314.246,467.319,247.968,306,247.968z M229.993,424.841
	c-6.971,6.521-14.712,9.213-23.237,11.986c-8.525,2.778-19.374,2.204-32.565,2.204h-29.897l-8.286,47.813H101.1l31.15-162.563
	h67.128c20.196,0,34.927,5.809,44.188,16.409s12.044,25.646,8.353,44.643c-1.525,7.827-4.093,15.104-7.717,21.587
	C240.573,413.408,235.835,419.467,229.993,424.841z M331.886,439.031l13.774-68.946c1.568-8.071,0.995-14.066-1.726-16.997
	c-2.726-2.936-8.521-4.901-17.38-4.901h-27.684l-17.839,90.844h-34.635l31.15-157.781h34.636l-8.282,43.031h30.854
	c19.416,0,32.804,3.896,40.172,10.667c7.367,6.77,9.576,16.046,6.632,31.212l-14.492,72.871H331.886z M524.374,385.586
	c-1.521,7.827-4.093,14.98-7.712,21.458c-3.624,6.488-8.357,12.422-14.205,17.796c-6.972,6.521-14.717,9.213-23.237,11.986
	c-8.52,2.778-19.378,2.204-32.569,2.204h-29.897l-8.281,47.813h-34.908l31.146-162.563h67.134c20.195,0,34.927,5.809,44.184,16.409
	C525.277,351.291,528.065,366.595,524.374,385.586z M458.612,348.188h-23.91l-13.039,66.938h21.238
	c14.066,0,24.557-1.387,31.441-6.693c6.895-5.298,11.537-13.522,13.952-25.919c2.313-11.91,1.262-21.2-3.156-26.096
	C480.717,351.52,471.876,348.188,458.612,348.188L458.612,348.188z M186.153,348.188h-23.916l-13.039,66.938h21.234
	c14.071,0,24.556-1.387,31.446-6.693c6.89-5.298,11.537-13.522,13.947-25.919c2.314-11.91,1.262-21.2-3.156-26.096
	S199.417,348.188,186.153,348.188L186.153,348.188z"/>
</svg>
