<?xml version="1.0" encoding="utf-8"?>
<!-- Generator: Adobe Illustrator 15.1.0, SVG Export Plug-In . SVG Version: 6.00 Build 0)  -->
<!DOCTYPE svg PUBLIC "-//W3C//DTD SVG 1.1//EN" "http://www.w3.org/Graphics/SVG/1.1/DTD/svg11.dtd">
<svg version="1.1" id="Layer_1" xmlns="http://www.w3.org/2000/svg" xmlns:xlink="http://www.w3.org/1999/xlink" x="0px" y="0px"
	 width="612px" height="792px" viewBox="0 0 612 792" enable-background="new 0 0 612 792" xml:space="preserve">
<path fill="#4F99D3" d="M603.471,93.476c-173.191-0.053-345.608-0.048-518.804-0.048c-24.772,0-49.969-0.019-74.741,0.053
	c-1.568,0.004-5.145,0.731-5.145,1.128v602.609h602.438V94.609C607.219,94.212,605.239,93.476,603.471,93.476z M542.576,638.247
	c-156.064-0.182-312.077-0.144-468.142-0.144c-7.535,0-7.502-0.015-7.502-7.779V162.732c0.005-7.684-0.072-5.795,7.545-5.795
	h467.597c7.832,0,7.77-1.894,7.77,6.173v233.502c0,78.029-0.033,156.06,0.172,234.085
	C550.035,636.641,548.634,638.252,542.576,638.247L542.576,638.247z M271.67,279.548c-31.881-7.473-63.973-3.787-96.031-0.512
	c-6.804,0.698-8.104,3.61-8.085,9.649c0.206,72.708-0.21,145.417-0.21,218.125v3.939h43.031v-85.397
	c23.906,1.793,45.785,1.367,67.172-6.264c34.276-12.23,51.408-38.781,49.558-77.547C325.607,310.234,305.942,287.581,271.67,279.548
	z M262.333,386.38c-15.271,7.445-31.509,7.268-47.836,5.059c-1.272-0.172-3.228-2.443-3.237-3.748
	c-0.191-25.489-0.144-50.973-0.144-77.16c14.97-2.333,29.166-3.471,43.328,0.086c17.562,4.413,27.75,15.869,29.648,33.072
	C286.177,362.593,278.13,378.682,262.333,386.38z M421.554,420.355c-7.024-3.849-14.727-6.44-22.022-9.815
	c-6.742-3.122-13.546-6.196-19.957-9.926c-4.471-2.597-6.503-7.134-6.503-12.484c0-9.046,6.187-16.337,16.754-17.203
	c7.884-0.646,16.069,0.167,23.877,1.625c6.579,1.224,12.818,4.298,19.518,6.67l8.448-29.974
	c-15.993-7.765-32.269-10.686-49.175-10.088c-14.373,0.502-27.799,4.165-39.934,12.426c-22.677,15.438-33.741,56.452,0.244,78.489
	c8.63,5.599,18.613,9.108,27.975,13.583c5.824,2.788,11.901,5.159,17.409,8.473c6.942,4.179,9.304,10.982,8.1,18.838
	c-1.182,7.722-6.359,12.613-13.56,13.741c-8.033,1.263-16.572,2.08-24.471,0.688c-11.184-1.965-21.989-6.124-33.345-9.462
	c-2.037,7.603-3.973,16.013-6.617,24.193c-1.448,4.484-0.598,6.698,3.801,8.453c26.856,10.667,54.191,12.861,81.674,3.429
	c20.54-7.053,33.063-21.631,34.692-43.84C450.05,446.528,440.296,430.636,421.554,420.355L421.554,420.355z"/>
</svg>
