<?xml version="1.0" encoding="utf-8"?>
<!-- Generator: Adobe Illustrator 15.1.0, SVG Export Plug-In . SVG Version: 6.00 Build 0)  -->
<!DOCTYPE svg PUBLIC "-//W3C//DTD SVG 1.1//EN" "http://www.w3.org/Graphics/SVG/1.1/DTD/svg11.dtd">
<svg version="1.1" id="Layer_1" xmlns="http://www.w3.org/2000/svg" xmlns:xlink="http://www.w3.org/1999/xlink" x="0px" y="0px"
	 width="612px" height="792px" viewBox="0 0 612 792" enable-background="new 0 0 612 792" xml:space="preserve">
<g id="_x31_0_x2013_20_x25__Black_Tint" display="none">
	<rect y="90" display="inline" opacity="0.15" fill="#292F33" enable-background="new    " width="612" height="612"/>
</g>
<g id="Logo__x2014__FIXED">
	<g>
		<path fill="#FFFFFF" d="M185.758,652.392c223.145,0,345.25-185.048,345.25-345.248c0-5.207,0-10.412-0.237-15.618
			c23.663-17.038,44.251-38.571,60.578-62.945c-21.771,9.703-45.196,16.091-69.807,19.167
			c25.083-14.907,44.247-38.808,53.479-67.204c-23.428,13.961-49.458,23.899-77.143,29.342
			c-22.246-23.663-53.717-38.335-88.503-38.335c-66.968,0-121.392,54.426-121.392,121.393c0,9.466,1.183,18.694,3.076,27.686
			c-100.806-4.969-190.253-53.479-250.121-126.835c-10.412,17.984-16.328,38.808-16.328,61.051
			c0,42.121,21.533,79.272,53.953,101.043c-19.877-0.711-38.571-6.156-54.899-15.146c0,0.473,0,0.947,0,1.656
			c0,58.685,41.884,107.904,97.256,119.023c-10.175,2.842-20.823,4.264-31.945,4.264c-7.81,0-15.381-0.711-22.717-2.13
			c15.381,48.273,60.341,83.293,113.347,84.241c-41.647,32.652-93.943,52.059-150.735,52.059c-9.702,0-19.403-0.476-28.869-1.656
			C53.48,632.277,117.371,652.392,185.758,652.392"/>
	</g>
</g>
</svg>
