<?xml version="1.0" encoding="utf-8"?>
<!-- Generator: Adobe Illustrator 15.1.0, SVG Export Plug-In . SVG Version: 6.00 Build 0)  -->
<!DOCTYPE svg PUBLIC "-//W3C//DTD SVG 1.1//EN" "http://www.w3.org/Graphics/SVG/1.1/DTD/svg11.dtd">
<svg version="1.1" id="Layer_1" xmlns="http://www.w3.org/2000/svg" xmlns:xlink="http://www.w3.org/1999/xlink" x="0px" y="0px"
	 width="275.012px" height="255.118px" viewBox="0 0 275.012 255.118" enable-background="new 0 0 275.012 255.118"
	 xml:space="preserve">
<g>
	<g>
		<g>
			<defs>
				<rect id="SVGID_1_" x="0" width="550.024" height="255.118"/>
			</defs>
			<clipPath id="SVGID_2_">
				<use xlink:href="#SVGID_1_"  overflow="visible"/>
			</clipPath>
			<path clip-path="url(#SVGID_2_)" fill="#FFFFFF" d="M253.915,69.077c-2.797-10.452-11.029-18.686-21.482-21.479
				c-18.947-5.078-94.928-5.078-94.928-5.078s-75.979,0-94.926,5.078c-10.455,2.794-18.688,11.027-21.48,21.479
				c-5.078,18.948-5.078,58.482-5.078,58.482s0,39.535,5.078,58.48c2.793,10.455,11.025,18.689,21.48,21.48
				c18.947,5.078,94.926,5.078,94.926,5.078s75.98,0,94.928-5.078c10.453-2.793,18.686-11.029,21.482-21.48
				c5.076-18.945,5.076-58.48,5.076-58.48S258.991,88.025,253.915,69.077 M113.208,164.004V91.113l63.125,36.446L113.208,164.004z"
				/>
		</g>
	</g>
</g>
</svg>
